<?xml version="1.0" encoding="UTF-8"?>
<svg width="24px" height="22px" viewBox="0 0 24 22" version="1.1" xmlns="http://www.w3.org/2000/svg" xmlns:xlink="http://www.w3.org/1999/xlink">
    <!-- Generator: Sketch 51.2 (57519) - http://www.bohemiancoding.com/sketch -->
    <title>icon / edit-3</title>
    <desc>Created with Sketch.</desc>
    <defs>
        <path d="M2.4,3.6 L2.4,2.4 C2.4,1.0745166 3.4745166,0 4.8,0 L19.2,0 C20.5254834,0 21.6,1.0745166 21.6,2.4 L21.6,3.6 C21.6,4.2627417 21.0627417,4.8 20.4,4.8 C19.7372583,4.8 19.2,4.2627417 19.2,3.6 C19.2,2.9372583 18.6627417,2.4 18,2.4 L6,2.4 C5.3372583,2.4 4.8,2.9372583 4.8,3.6 C4.8,4.2627417 4.2627417,4.8 3.6,4.8 C2.9372583,4.8 2.4,4.2627417 2.4,3.6 Z M14.4,14.4 C14.4196741,15.2700092 13.9668572,16.0825059 13.2165887,16.5234143 C12.4663201,16.9643227 11.5361621,16.9645553 10.7856731,16.5240222 C10.0351842,16.0834891 9.58196102,15.2712189 9.6012,14.4012 C9.63004139,13.0969441 10.6954386,12.0545852 12.0000133,12.054259 C13.304588,12.0539328 14.3705063,13.0957587 14.4,14.4 Z M21.6,11.5884 L19.6116,9.6 C21.5664,9.6 21.6,10.0608 21.6,11.5884 Z M19.6116,19.2 L21.6,17.2116 C21.6,19.164 21.144,19.2 19.6116,19.2 Z M7.782,19.2 L2.982,14.4 L7.782,9.6 L16.218,9.6 L21.018,14.4 L16.218,19.2 L7.782,19.2 Z M2.4,17.2116 L4.3884,19.2 C2.436,19.2 2.4,18.744 2.4,17.2116 Z M4.3884,9.6 L2.4,11.5884 C2.4,9.6336 2.8608,9.6 4.3884,9.6 Z M21.6,7.2 L2.4,7.2 C1.0745166,7.2 0,8.2745166 0,9.6 L0,19.2 C0,20.5254834 1.0745166,21.6 2.4,21.6 L21.6,21.6 C22.9254834,21.6 24,20.5254834 24,19.2 L24,9.6 C24,8.2745166 22.9254834,7.2 21.6,7.2 Z" id="path-1"></path>
    </defs>
    <g id="Page-1" stroke="none" stroke-width="1" fill="none" fill-rule="evenodd">
        <g id="Privat_01.2" transform="translate(-675.000000, -1454.000000)">
            <g id="02" transform="translate(215.000000, 1144.000000)">
                <g id="Stacked-Group-4" transform="translate(0.000000, 245.000000)">
                    <g id="#1-copy" transform="translate(390.000000, 0.000000)">
                        <g id="icon" transform="translate(40.000000, 34.000000)">
                            <g id="icon-/-money-copy" transform="translate(30.000000, 30.000000)">
                                <g id="Icon-🎨" transform="translate(0.000000, 1.000000)">
                                    <g>
                                        <mask id="mask-2" fill="white">
                                            <use xlink:href="#path-1"></use>
                                        </mask>
                                        <use id="Mask" fill="#000000" fill-rule="nonzero" xlink:href="#path-1"></use>
                                        <g id="Color/primary/blue" mask="url(#mask-2)" fill="#108EC8">
                                            <g transform="translate(0.000000, -1.000000)">
                                                <rect x="0" y="0" width="24" height="24"></rect>
                                            </g>
                                        </g>
                                    </g>
                                </g>
                                <g id="coins" transform="translate(0.000000, 4.000000)"></g>
                            </g>
                        </g>
                    </g>
                </g>
            </g>
        </g>
    </g>
</svg>