<?xml version="1.0" encoding="UTF-8"?>
<svg width="24px" height="24px" viewBox="0 0 24 24" version="1.1" xmlns="http://www.w3.org/2000/svg" xmlns:xlink="http://www.w3.org/1999/xlink">
    <!-- Generator: Sketch 51.1 (57501) - http://www.bohemiancoding.com/sketch -->
    <title>icon / socia / Fb</title>
    <desc>Created with Sketch.</desc>
    <defs></defs>
    <g id="icon-/-socia-/-Fb" stroke="none" stroke-width="1" fill="none" fill-rule="evenodd">
        <g id="Facebook">
            <g id="Asset-2">
                <g id="Layer_2">
                    <g id="Layer_1-2">
                        <rect id="Rectangle-path" fill="#4C76BE" fill-rule="nonzero" x="0" y="0" width="23.8924138" height="23.8924138" rx="6.48"></rect>
                        <path d="M13.9531034,7.68827586 L15.3186207,7.68827586 L15.3186207,5.59448276 C15.1034483,5.59448276 14.88,5.54482759 14.6565517,5.52827586 L13.4234483,5.52827586 C12.802623,5.52472915 12.1957828,5.71256065 11.6855172,6.0662069 C11.1146294,6.47960659 10.7354712,7.10656097 10.6344828,7.80413793 C10.5878134,8.09984449 10.5629189,8.3985786 10.56,8.69793103 L10.56,10.2786207 L8.56551724,10.2786207 L8.56551724,12.6041379 L10.5517241,12.6041379 L10.5517241,18.4551724 L12.9765517,18.4551724 L12.9765517,12.5958621 L14.9544828,12.5958621 L15.2606897,10.2537931 L12.96,10.2537931 L12.96,8.59862069 C13.0013793,7.91172414 13.4068966,7.70482759 13.9531034,7.68827586 Z" id="Shape" fill="#FFFFFF"></path>
                    </g>
                </g>
            </g>
        </g>
    </g>
</svg>