<?xml version="1.0" encoding="UTF-8"?>
<svg width="24px" height="24px" viewBox="0 0 24 24" version="1.1" xmlns="http://www.w3.org/2000/svg" xmlns:xlink="http://www.w3.org/1999/xlink">
    <!-- Generator: Sketch 51.1 (57501) - http://www.bohemiancoding.com/sketch -->
    <title>icon / socia / instagram</title>
    <desc>Created with Sketch.</desc>
    <defs>
        <linearGradient x1="-6.37339799%" y1="105.542085%" x2="111.395913%" y2="-10.4953239%" id="linearGradient-1">
            <stop stop-color="#FED576" offset="0%"></stop>
            <stop stop-color="#F47133" offset="26%"></stop>
            <stop stop-color="#BC3081" offset="61%"></stop>
            <stop stop-color="#4C63D2" offset="100%"></stop>
        </linearGradient>
    </defs>
    <g id="icon-/-socia-/-instagram" stroke="none" stroke-width="1" fill="none" fill-rule="evenodd">
        <g id="Instagram" fill-rule="nonzero">
            <g id="Asset-16">
                <g id="Layer_2">
                    <g id="Layer_1-2">
                        <rect id="Rectangle-path" fill="url(#linearGradient-1)" x="0" y="0" width="23.8924138" height="23.8924138" rx="6.48"></rect>
                        <g id="_Group_" transform="translate(3.310345, 4.137931)" fill="#FFFFFF">
                            <path d="M4.96551724,0 L12.4137931,0 C12.5793103,0.0827586207 12.8275862,0.0827586207 12.9931034,0.165517241 C14.4745641,0.405610597 15.6925806,1.46336172 16.137931,2.89655172 C16.2601518,3.30146446 16.3432904,3.71715742 16.3862069,4.13793103 L16.3862069,11.4206897 C16.2678918,12.3436857 15.9270814,13.2241126 15.3931034,13.9862069 C14.4645628,15.0620188 13.0875447,15.6434265 11.6689655,15.5586207 L5.46206897,15.5586207 C4.35438412,15.6123829 3.26528293,15.2591609 2.4,14.5655172 C1.33369801,13.644226 0.753248333,12.2816968 0.827586207,10.8744828 L0.827586207,5.08137931 C0.813914623,4.66586525 0.841637499,4.25002213 0.910344828,3.84 C1.08174566,2.09983085 2.34929466,0.665499088 4.05517241,0.28137931 L4.96551724,0 Z M2.4,7.86206897 L2.4,11.0896552 C2.32857541,11.9216158 2.62816677,12.7426594 3.21861575,13.3331084 C3.80906473,13.9235574 4.63010831,14.2231487 5.46206897,14.1517241 C7.6137931,14.2344828 9.76551724,14.2344828 11.9172414,14.1517241 C13.8206897,14.1517241 14.8965517,12.9931034 14.9793103,11.0896552 C15.062069,8.93793103 15.062069,6.7862069 14.9793103,4.63448276 C15.0226774,3.80984 14.7140182,3.00553841 14.130102,2.42162215 C13.5461857,1.8377059 12.7418841,1.52904677 11.9172414,1.57241379 C9.76551724,1.48965517 7.6137931,1.48965517 5.46206897,1.57241379 C4.63010831,1.5009892 3.80906473,1.80058056 3.21861575,2.39102954 C2.62816677,2.98147853 2.32857541,3.8025221 2.4,4.63448276 L2.4,7.86206897 Z" id="_Compound_Path_"></path>
                            <path d="M4.66758621,7.89517241 C4.67213906,5.6574511 6.48503731,3.84455286 8.72275862,3.84 C10.9438897,3.88399565 12.7339354,5.67404135 12.777931,7.89517241 C12.7733782,10.1328937 10.9604799,11.945792 8.72275862,11.9503448 C6.50162755,11.9063492 4.71158186,10.1163035 4.66758621,7.89517241 Z M8.72275862,5.32965517 C7.69450073,5.31293223 6.75890629,5.92170358 6.35764476,6.86858431 C5.95638323,7.81546505 6.16969373,8.91111013 6.89687801,9.6382944 C7.62406229,10.3654787 8.71970736,10.5787892 9.6665881,10.1775277 C10.6134688,9.77626612 11.2222402,8.84067168 11.2055172,7.81241379 C11.2055172,6.44122407 10.0939483,5.32965517 8.72275862,5.32965517 Z" id="_Compound_Path_2"></path>
                            <path d="M11.8675862,3.67448276 C11.8582391,3.40833985 11.9598647,3.15027277 12.1481722,2.96196529 C12.3364797,2.7736578 12.5945467,2.67203222 12.8606897,2.68137931 C13.3935233,2.71742112 13.8177513,3.14164912 13.8537931,3.67448276 C13.8537931,4.22295865 13.4091655,4.66758621 12.8606897,4.66758621 C12.3122138,4.66758621 11.8675862,4.22295865 11.8675862,3.67448276 Z" id="_Path_"></path>
                        </g>
                    </g>
                </g>
            </g>
        </g>
    </g>
</svg>