<?xml version="1.0" encoding="UTF-8"?>
<svg width="24px" height="24px" viewBox="0 0 24 24" version="1.1" xmlns="http://www.w3.org/2000/svg" xmlns:xlink="http://www.w3.org/1999/xlink">
    <!-- Generator: Sketch 51.1 (57501) - http://www.bohemiancoding.com/sketch -->
    <title>icon / socia / skype</title>
    <desc>Created with Sketch.</desc>
    <defs></defs>
    <g id="icon-/-socia-/-skype" stroke="none" stroke-width="1" fill="none" fill-rule="evenodd">
        <g id="Skype" fill-rule="nonzero">
            <g id="Asset-34">
                <g id="Layer_2">
                    <g id="Layer_1-2">
                        <rect id="Rectangle-path" fill="#00AFF0" x="0" y="0" width="23.8924138" height="23.8924138" rx="6.48"></rect>
                        <path d="M18.2068966,13.3489655 C18.3046432,12.9115304 18.3545912,12.4647729 18.3558621,12.0165517 C18.3427626,10.3499102 17.6669586,8.7569935 16.47761,7.58938239 C15.2882615,6.42177128 13.6831514,5.77546154 12.0165517,5.79310345 C11.6560181,5.79335055 11.2961389,5.82380187 10.9406897,5.88413793 C10.3570377,5.52104101 9.68324003,5.32893699 8.99586207,5.32965517 C8.03086859,5.32083989 7.10201626,5.69631242 6.41422196,6.37323865 C5.72642765,7.05016487 5.33620967,7.97291955 5.32965517,8.93793103 C5.31865863,9.57533819 5.47869294,10.2040444 5.79310345,10.7586207 C5.41263218,12.5952881 5.8936223,14.5050779 7.09867035,15.9424244 C8.3037184,17.3797709 10.1002937,18.1865953 11.9751724,18.1324138 C12.3638306,18.1315045 12.7516126,18.0954962 13.1337931,18.0248276 C13.6590137,18.3386901 14.2525412,18.5204401 14.8634483,18.5544828 C15.827014,18.56109 16.7537368,18.18464 17.4397369,17.5079522 C18.1257369,16.8312643 18.5148171,15.9097729 18.5213793,14.9462069 C18.5413732,14.3966459 18.4337293,13.8499285 18.2068966,13.3489655 Z" id="Shape" fill="#FFFFFF"></path>
                        <path d="M14.8965517,14.5572414 C14.6276004,14.929952 14.2569539,15.2172748 13.8289655,15.3848276 C13.3023241,15.5924475 12.7397767,15.693706 12.1737931,15.6827586 C11.512904,15.7068089 10.8562811,15.5675253 10.262069,15.2772414 C9.93070694,15.0877229 9.64750837,14.8243482 9.43448276,14.5075862 C9.22952046,14.2347475 9.11389897,13.9052263 9.10344828,13.5641379 C9.10135061,13.3909577 9.17367881,13.2252056 9.30206897,13.1089655 C9.44089887,12.9796675 9.62560482,12.9111475 9.81517241,12.9186207 C9.96936835,12.9148438 10.1195765,12.9678585 10.2372414,13.0675862 C10.3698243,13.1881895 10.4719266,13.3385067 10.5351724,13.5062069 C10.6199917,13.7085509 10.7283225,13.9002131 10.857931,14.0772414 C10.9871646,14.2421026 11.1548061,14.3728061 11.3462069,14.457931 C11.6079808,14.5670862 11.8903872,14.6179194 12.1737931,14.6068966 C12.552353,14.6059493 12.9227582,14.4968377 13.2413793,14.2924138 C13.5083625,14.1344979 13.6743801,13.8494488 13.68,13.5393103 C13.6869229,13.3206983 13.5994957,13.1096672 13.44,12.96 C13.2642917,12.8018384 13.0548515,12.6857972 12.8275862,12.6206897 C12.5793103,12.5434483 12.2427586,12.4606897 11.817931,12.3724138 C11.3367748,12.2761251 10.8657367,12.1348136 10.4110345,11.9503448 C10.0597604,11.8084736 9.7496289,11.5808541 9.50896552,11.2882759 C9.28361527,10.9882599 9.16689079,10.6205778 9.17793103,10.2455172 C9.17208236,9.86466213 9.29777027,9.49344436 9.5337931,9.19448276 C9.79775352,8.86445173 10.1511318,8.61737423 10.5517241,8.48275862 C11.054251,8.30788376 11.583884,8.22381504 12.1158621,8.23448276 C12.5383436,8.22691388 12.9595738,8.28270597 13.3655172,8.4 C13.6793022,8.49248422 13.973719,8.64109459 14.2344828,8.83862069 C14.4404948,8.99194401 14.6124036,9.18639825 14.7393103,9.40965517 C14.8386426,9.58685843 14.8926567,9.78585786 14.8965517,9.98896552 C14.8875622,10.3664196 14.5789404,10.6676932 14.2013793,10.6675862 C14.0529481,10.6778461 13.9058582,10.6337191 13.7875862,10.5434483 C13.6645619,10.4223305 13.5612437,10.2827113 13.4813793,10.1296552 C13.3592365,9.8821258 13.1840482,9.66455315 12.9682759,9.49241379 C12.6807891,9.31570027 12.3447199,9.23458011 12.0082759,9.26068966 C11.6599705,9.24339118 11.3143602,9.32979374 11.0151724,9.50896552 C10.7948064,9.62818954 10.6533614,9.85450158 10.6427586,10.1048276 C10.6395353,10.2396296 10.6834367,10.3713337 10.7668966,10.4772414 C10.8641144,10.5932082 10.9855907,10.6864342 11.1227586,10.7503448 C11.2685854,10.8226769 11.4210056,10.8808737 11.577931,10.9241379 L12.3393103,11.1062069 C12.7806897,11.2 13.1806897,11.3048276 13.5393103,11.4206897 C13.859565,11.5181732 14.1656303,11.6572938 14.4496552,11.8344828 C14.6932528,11.9903064 14.8949893,12.2034083 15.0372414,12.4551724 C15.186991,12.7376973 15.2611158,13.0541534 15.2524138,13.3737931 C15.2620789,13.7960029 15.137475,14.2103834 14.8965517,14.5572414 Z" id="Shape" fill="#00AFF0"></path>
                    </g>
                </g>
            </g>
        </g>
    </g>
</svg>