<?xml version="1.0" encoding="UTF-8"?>
<svg width="24px" height="24px" viewBox="0 0 24 24" version="1.1" xmlns="http://www.w3.org/2000/svg" xmlns:xlink="http://www.w3.org/1999/xlink">
    <!-- Generator: Sketch 51.1 (57501) - http://www.bohemiancoding.com/sketch -->
    <title>icon / socia / viber</title>
    <desc>Created with Sketch.</desc>
    <defs></defs>
    <g id="icon-/-socia-/-viber" stroke="none" stroke-width="1" fill="none" fill-rule="evenodd">
        <g id="Viber" fill-rule="nonzero">
            <g id="Asset-30">
                <g id="Layer_2">
                    <g id="Layer_1-2">
                        <rect id="Rectangle-path" fill="#7D3DAF" x="0" y="0" width="23.8924138" height="23.8924138" rx="6.48"></rect>
                        <path d="M18.0662069,8.50758621 C17.6102932,7.11581246 16.4944901,6.04030225 15.0868966,5.63586207 C13.0257091,5.24023591 10.908084,5.24023591 8.84689655,5.63586207 C7.41470284,6.01549133 6.26804909,7.08756598 5.79310345,8.49103448 C5.41156541,10.2219832 5.41156541,12.0152582 5.79310345,13.7462069 C6.23199071,15.0807311 7.27496942,16.129845 8.60689655,16.5765517 L8.60689655,17.9751724 C8.60739755,18.2045361 8.74704754,18.4106458 8.95988123,18.4961431 C9.17271491,18.5816404 9.41614023,18.5294157 9.57517241,18.3641379 L10.9903448,16.8993103 L11.9089655,16.8993103 C12.9560267,16.898465 14.000667,16.7987116 15.0289655,16.6013793 C16.4365591,16.1969391 17.5523622,15.1214289 18.0082759,13.7296552 C18.4040735,12.0135263 18.423836,10.2320732 18.0662069,8.50758621 Z M16.9489655,13.4731034 C16.598272,14.4350732 15.8221692,15.1806207 14.8468966,15.4924138 C13.7561755,15.6994246 12.6463114,15.7882138 11.5365517,15.7572414 C11.5180325,15.7494241 11.4971399,15.7494241 11.4786207,15.7572414 L10.4358621,16.8827586 L9.33517241,18.0082759 C9.29744004,18.0440695 9.24224793,18.0544598 9.19408298,18.0348371 C9.14591804,18.0152143 9.11370047,17.9692126 9.11172414,17.9172414 L9.11172414,15.6082759 C9.10875214,15.5714544 9.08173631,15.5410616 9.04551724,15.5337931 C8.07024459,15.222 7.29414179,14.4764525 6.94344828,13.5144828 C6.59980046,11.9496795 6.59980046,10.3289412 6.94344828,8.76413793 C7.29414179,7.80216822 8.07024459,7.05662065 9.04551724,6.74482759 C10.9592243,6.3789871 12.9249136,6.3789871 14.8386207,6.74482759 C15.8138933,7.05662065 16.5899961,7.80216822 16.9406897,8.76413793 C17.2873273,10.3283134 17.2901509,11.949109 16.9489655,13.5144828 L16.9489655,13.4731034 Z" id="Shape" fill="#FFFFFF"></path>
                        <path d="M14.7475862,13.1089655 C14.5754188,12.9645694 14.3958665,12.8292146 14.2096552,12.7034483 C14.0193103,12.5710345 13.8372414,12.4386207 13.6386207,12.3144828 C13.4594644,12.1806879 13.213639,12.1806879 13.0344828,12.3144828 C12.8524138,12.4634483 12.7613793,12.7531034 12.5048276,12.7862069 C12.3542618,12.7901737 12.2054682,12.7529753 12.0744828,12.6786207 C11.2785994,12.3276491 10.674551,11.6480946 10.4193103,10.8165517 C10.3675728,10.7122715 10.3675728,10.5897975 10.4193103,10.4855172 C10.4551369,10.4314402 10.4999156,10.3838628 10.5517241,10.3448276 L10.7255172,10.2124138 C10.9618933,10.0485231 11.02752,9.72768137 10.8744828,9.48413793 C10.6386754,9.08109897 10.3613,8.70386839 10.0468966,8.35862069 C9.92699943,8.19507639 9.70625008,8.14251702 9.52551724,8.23448276 C9.27835443,8.34995669 9.05837813,8.51634901 8.88,8.72275862 C8.64837621,8.93009599 8.55248081,9.24974732 8.63172414,9.55034483 C8.76413793,9.87310345 8.89655172,10.1958621 9.04551724,10.5103448 C9.36088243,11.1740448 9.76453896,11.7920569 10.2455172,12.3475862 C11.1162516,13.2792399 12.1893634,13.998423 13.382069,14.4496552 C13.497931,14.4993103 13.622069,14.5241379 13.7462069,14.5655172 C13.8596948,14.5401644 13.9705325,14.5041422 14.0772414,14.457931 C14.4169133,14.2730413 14.6870997,13.9825184 14.8468966,13.6303448 C14.9408783,13.4548769 14.8994918,13.2375978 14.7475862,13.1089655 Z" id="Shape" fill="#FFFFFF"></path>
                        <path d="M11.9503448,7.8537931 L11.8593103,7.8537931 C11.8042162,7.85332215 11.7516209,7.87674667 11.7151157,7.91801347 C11.6786104,7.95928026 11.6617771,8.01434036 11.6689655,8.06896552 C11.6689655,8.20965517 11.8344828,8.20965517 11.9503448,8.2262069 C12.0662069,8.24275862 12.3062069,8.2262069 12.4717241,8.28413793 C13.63463,8.50075991 14.5320016,9.43136753 14.7062069,10.6013793 C14.7062069,10.8165517 14.7475862,11.04 14.7641379,11.2634483 C14.7806897,11.4868966 14.8303448,11.4786207 14.9544828,11.4786207 C15.007643,11.4770938 15.0574781,11.4524 15.0908944,11.4110275 C15.1243107,11.3696549 15.1379673,11.3157399 15.1282759,11.2634483 C15.1282759,10.9986207 15.1282759,10.7337931 15.0455172,10.4358621 C14.7704271,8.94198888 13.4693326,7.85658389 11.9503448,7.8537931 Z" id="Shape" fill="#FFFFFF"></path>
                        <path d="M13.9448276,10.8827586 C13.9369378,10.9321004 13.9369378,10.9823824 13.9448276,11.0317241 C13.9678691,11.1036938 14.0347767,11.1525259 14.1103448,11.1525259 C14.185913,11.1525259 14.2528205,11.1036938 14.2758621,11.0317241 C14.2785452,10.9959123 14.2785452,10.9599498 14.2758621,10.9241379 L14.2758621,10.6593103 L14.2758621,10.56 C14.1961552,9.87342616 13.7762257,9.27308251 13.1586207,8.96275862 C12.8426776,8.80132047 12.4952503,8.71093288 12.1406897,8.69793103 C12.0940022,8.69323817 12.0475169,8.70858193 12.0127969,8.74014556 C11.9780769,8.77170919 11.9583854,8.81652616 11.9586207,8.86344828 C11.9515146,8.91004988 11.9646163,8.95747054 11.9946391,8.9938139 C12.0246618,9.03015726 12.0687569,9.05197477 12.1158621,9.0537931 L12.4137931,9.10344828 C12.6174698,9.13522876 12.8154179,9.19656479 13.0013793,9.28551724 C13.3087503,9.43757972 13.5648198,9.67638606 13.737931,9.97241379 C13.8823966,10.2536194 13.9535594,10.5667355 13.9448276,10.8827586 Z" id="Shape" fill="#FFFFFF"></path>
                        <path d="M13.4813793,10.7586207 C13.4889984,10.7092578 13.4889984,10.6590181 13.4813793,10.6096552 C13.4835854,10.3250825 13.3720825,10.0514069 13.1716316,9.84940213 C12.9711808,9.64739739 12.6983743,9.53378455 12.4137931,9.5337931 C12.3198568,9.52749489 12.2354283,9.59081631 12.2151724,9.68275862 C12.2055037,9.72894393 12.2150304,9.77707542 12.2415638,9.8160952 C12.2680973,9.85511498 12.3093564,9.88166847 12.3558621,9.88965517 C12.4468966,9.88965517 12.5462069,9.88965517 12.6455172,9.93103448 C12.7196787,9.95199866 12.7896697,9.98559434 12.8524138,10.0303448 C12.9833519,10.130782 13.0742905,10.2745237 13.1089655,10.4358621 C13.114276,10.5185355 13.114276,10.6014645 13.1089655,10.6841379 C13.1089164,10.7360877 13.1301025,10.7858003 13.1676097,10.8217447 C13.2051168,10.857689 13.2556856,10.8767415 13.3075862,10.8744828 C13.3865057,10.885475 13.4611724,10.8356972 13.4813793,10.7586207 Z" id="Shape" fill="#FFFFFF"></path>
                    </g>
                </g>
            </g>
        </g>
    </g>
</svg>