<?xml version="1.0" encoding="UTF-8"?>
<svg width="24px" height="24px" viewBox="0 0 24 24" version="1.1" xmlns="http://www.w3.org/2000/svg" xmlns:xlink="http://www.w3.org/1999/xlink">
    <!-- Generator: Sketch 51.1 (57501) - http://www.bohemiancoding.com/sketch -->
    <title>icon / socia / Whatsup</title>
    <desc>Created with Sketch.</desc>
    <defs></defs>
    <g id="icon-/-socia-/-Whatsup" stroke="none" stroke-width="1" fill="none" fill-rule="evenodd">
        <g id="Whatsapp">
            <g id="Asset-10">
                <g id="Layer_2">
                    <g id="Layer_1-2">
                        <rect id="Rectangle-path" fill="#189D0E" fill-rule="nonzero" x="0" y="0" width="23.8924138" height="23.8924138" rx="6.48"></rect>
                        <path d="M5.86758621,18.057931 L6.05793103,17.337931 C6.25655172,16.6013793 6.46344828,15.8731034 6.6537931,15.1365517 C6.69416542,15.0213662 6.69416542,14.8958752 6.6537931,14.7806897 C5.24170362,12.1462638 5.96213767,8.87564376 8.35042321,7.07834344 C10.7387088,5.28104312 14.0809381,5.49431261 16.2214101,7.58059542 C18.361882,9.66687823 18.6607655,13.0025415 16.925284,15.4361191 C15.1898024,17.8696967 11.938727,18.6737423 9.26896552,17.3296552 C9.14792478,17.2904389 9.01759246,17.2904389 8.89655172,17.3296552 C7.25793103,17.6937931 6.19862069,17.9917241 5.86758621,18.057931 Z M7.28275862,16.6675862 C7.88689655,16.5103448 8.44137931,16.3696552 8.99586207,16.2206897 C9.13560044,16.1782044 9.28695645,16.1993942 9.40965517,16.2786207 C10.4165652,16.880238 11.6039407,17.1059859 12.7613793,16.9158621 C14.9445457,16.5724307 16.6529775,14.8531006 16.9825196,12.6677945 C17.3120617,10.4824884 16.1866199,8.33581283 14.2018129,7.36385505 C12.2170059,6.39189726 9.83114323,6.81909092 8.30689733,8.41935189 C6.78265143,10.0196129 6.47198419,12.4234267 7.53931034,14.3586207 C7.73024984,14.6412996 7.7733761,14.9986314 7.65517241,15.3186207 C7.5062069,15.7241379 7.44827586,16.1793103 7.28275862,16.6675862 Z" id="Shape" fill="#FFFFFF"></path>
                        <path d="M13.5475862,14.8055172 C12.3641379,14.7641379 10.4772414,13.8289655 9.1862069,11.5862069 C8.70268905,10.8455904 8.82138369,9.86461404 9.46758621,9.26068966 C9.69080363,9.09344339 9.98325078,9.04988743 10.2455172,9.14482759 C10.3117241,9.14482759 10.377931,9.25241379 10.4110345,9.32689655 C10.5848276,9.71586207 10.7503448,10.1131034 10.8993103,10.5103448 C10.982069,10.7255172 10.8331034,10.9241379 10.5268966,11.2717241 C10.440225,11.3713774 10.440225,11.5196571 10.5268966,11.6193103 C10.9995027,12.4443325 11.7418111,13.0814318 12.6289655,13.4234483 C12.741837,13.4828706 12.8813719,13.4470924 12.9517241,13.3406897 C13.4317241,12.7531034 13.4813793,12.5793103 13.7793103,12.6951724 C15.0041379,13.2827586 15.0951724,13.3075862 15.1034483,13.44 C15.119172,13.8414475 14.9529168,14.2285578 14.6509634,14.49357 C14.3490101,14.7585823 13.9435993,14.8732002 13.5475862,14.8055172 Z" id="Shape" fill="#FFFFFF"></path>
                    </g>
                </g>
            </g>
        </g>
    </g>
</svg>
